<svg width="1000" height="1415" viewBox="0 0 1000 1415" fill="none" xmlns="http://www.w3.org/2000/svg">
<g filter="url(#filter0_f_27_15106)">
<path d="M429.798 414.031C268.791 33.3427 76.9167 135.887 1.10538 234.746L-17.0385 1403.05L1098.39 1378.83L1237.88 780.885C1148.8 827.554 925.645 924.681 745.627 939.833C520.603 958.773 631.057 889.89 429.798 414.031Z" fill="url(#paint0_linear_27_15106)"/>
</g>
<g filter="url(#filter1_f_27_15106)">
<path d="M14.7519 566.39C-7.57934 546.421 11.2361 507.752 41.2137 516.703C66.0396 524.115 118.427 562.676 140.709 578.018C222.313 634.201 299.887 698.135 364.755 773.303C414.035 830.407 449.713 897.51 503.234 951.17C535.572 983.591 573.196 1011.85 614.659 1031.54C725.098 1083.97 852.535 1066.52 969.092 1049.18C1015.45 1042.29 1061.88 1033.97 1106.98 1021.03C1126.84 1015.33 1151.46 1009.4 1168.05 996.562C1186 982.657 1211.93 1002.96 1199.81 1023.38C1190.21 1039.55 1169.75 1051.27 1154.57 1061.25C1117.01 1085.95 1076.56 1106.42 1036.02 1125.68C890.127 1194.98 727.042 1258.99 564.339 1212.92C453.954 1181.67 369.108 1101.55 313.561 1003.17C284.819 952.267 265.849 896.835 237.484 845.713C179.652 741.485 103.567 645.812 14.7519 566.39Z" fill="#C163FF"/>
</g>
<g filter="url(#filter2_f_27_15106)">
<path d="M1338.32 -30.2433C1359.36 -51.5705 1338.16 -88.9863 1308.8 -78.178C1284.49 -69.2272 1234.61 -27.4648 1213.33 -10.7594C1135.4 50.4186 1061.98 119.08 1001.94 198.158C956.331 258.232 924.921 327.435 874.86 384.338C844.614 418.719 808.832 449.275 768.68 471.517C661.738 530.756 533.458 521.307 416.046 511.3C369.346 507.32 322.487 501.917 276.666 491.825C256.492 487.382 231.547 483.006 214.191 471.226C195.399 458.472 170.789 480.355 184.162 499.976C194.756 515.521 215.911 525.934 231.689 534.948C270.712 557.242 312.368 575.151 354.03 591.834C503.976 651.875 670.746 705.551 830.249 649.403C938.463 611.309 1018.13 526.033 1067.42 424.374C1092.92 371.771 1108.38 315.261 1133.49 262.465C1184.69 154.824 1254.64 54.5785 1338.32 -30.2433Z" fill="#C163FF"/>
</g>
<g filter="url(#filter3_f_27_15106)">
<circle cx="945.455" cy="579.65" r="307.544" transform="rotate(-16.7931 945.455 579.65)" fill="url(#paint1_linear_27_15106)"/>
</g>
<g filter="url(#filter4_f_27_15106)">
<path d="M1086.18 137.334C729.905 168.71 550.789 473.606 618.004 685.302" stroke="#130735" stroke-width="123.652"/>
</g>
<g filter="url(#filter5_f_27_15106)">
<path d="M1136.71 816.963C326.14 861.313 -93.4353 1155.27 50.4031 1351.37" stroke="#130735" stroke-width="123.652"/>
</g>
<g filter="url(#filter6_f_27_15106)">
<path d="M892.787 715.161C616.57 758.041 98.8268 852.548 237.592 887.538C376.357 922.527 563.144 942.903 639.193 948.716C732.86 955.829 846.705 985.995 552.744 1049.76C185.292 1129.46 -515.824 1177.58 107.236 1232.62C605.684 1276.65 924.108 1263.88 1021.01 1251.99" stroke="black" stroke-width="123.652"/>
</g>
<g filter="url(#filter7_f_27_15106)">
<circle cx="308.936" cy="302.429" r="316.659" transform="rotate(-1.79313 308.936 302.429)" fill="#F889DF"/>
</g>
<g style="mix-blend-mode:screen">
<rect x="-39" y="-56" width="1073.32" height="1536.59" fill="url(#paint2_linear_27_15106)"/>
</g>
<g filter="url(#filter8_f_27_15106)">
<ellipse cx="847.06" cy="879.015" rx="280.198" ry="369.37" transform="rotate(14.8749 847.06 879.015)" fill="url(#paint3_linear_27_15106)"/>
</g>
<g filter="url(#filter9_f_27_15106)">
<path d="M811.218 1333.18C655.856 1539.83 366.526 1584.51 164.981 1432.99C-36.5647 1281.47 -74.0041 991.109 81.3573 784.46C236.719 577.811 197.583 954.709 399.128 1106.23C600.674 1257.76 966.579 1126.53 811.218 1333.18Z" fill="url(#paint4_linear_27_15106)"/>
<path d="M811.218 1333.18C655.856 1539.83 366.526 1584.51 164.981 1432.99C-36.5647 1281.47 -74.0041 991.109 81.3573 784.46C236.719 577.811 197.583 954.709 399.128 1106.23C600.674 1257.76 966.579 1126.53 811.218 1333.18Z" fill="url(#paint5_radial_27_15106)"/>
</g>
<g filter="url(#filter10_f_27_15106)">
<ellipse cx="848.052" cy="910.705" rx="280.198" ry="369.37" transform="rotate(14.8749 848.052 910.705)" fill="url(#paint6_linear_27_15106)"/>
</g>
<g filter="url(#filter11_f_27_15106)">
<circle cx="204.536" cy="146.695" r="284.557" transform="rotate(-1.79313 204.536 146.695)" fill="#F4CDFF"/>
</g>
<g filter="url(#filter12_f_27_15106)">
<path d="M1051.43 575.38C945.371 468.073 531.258 463.194 435.597 738.594" stroke="#F6D0FE" stroke-width="66.5817"/>
</g>
<g filter="url(#filter13_f_27_15106)">
<path d="M1111.09 264.628C818.544 153.246 533.547 434.97 437.885 710.37" stroke="url(#paint7_linear_27_15106)" stroke-width="221.939"/>
</g>
<g style="mix-blend-mode:saturation">
<rect x="7" y="2" width="986.107" height="1411.19" fill="#551AFF"/>
</g>
<defs>
<filter id="filter0_f_27_15106" x="-96.3023" y="64.1099" width="1413.45" height="1418.2" filterUnits="userSpaceOnUse" color-interpolation-filters="sRGB">
<feFlood flood-opacity="0" result="BackgroundImageFix"/>
<feBlend mode="normal" in="SourceGraphic" in2="BackgroundImageFix" result="shape"/>
<feGaussianBlur stdDeviation="39.6319" result="effect1_foregroundBlur_27_15106"/>
</filter>
<filter id="filter1_f_27_15106" x="-153.577" y="356.852" width="1515.03" height="1030.2" filterUnits="userSpaceOnUse" color-interpolation-filters="sRGB">
<feFlood flood-opacity="0" result="BackgroundImageFix"/>
<feBlend mode="normal" in="SourceGraphic" in2="BackgroundImageFix" result="shape"/>
<feGaussianBlur stdDeviation="79.2639" result="effect1_foregroundBlur_27_15106"/>
</filter>
<filter id="filter2_f_27_15106" x="101.082" y="-159.361" width="1324.99" height="911.704" filterUnits="userSpaceOnUse" color-interpolation-filters="sRGB">
<feFlood flood-opacity="0" result="BackgroundImageFix"/>
<feBlend mode="normal" in="SourceGraphic" in2="BackgroundImageFix" result="shape"/>
<feGaussianBlur stdDeviation="39.6319" result="effect1_foregroundBlur_27_15106"/>
</filter>
<filter id="filter3_f_27_15106" x="365.162" y="-0.642609" width="1160.59" height="1160.59" filterUnits="userSpaceOnUse" color-interpolation-filters="sRGB">
<feFlood flood-opacity="0" result="BackgroundImageFix"/>
<feBlend mode="normal" in="SourceGraphic" in2="BackgroundImageFix" result="shape"/>
<feGaussianBlur stdDeviation="136.334" result="effect1_foregroundBlur_27_15106"/>
</filter>
<filter id="filter4_f_27_15106" x="383.426" y="-82.7812" width="866.707" height="945.32" filterUnits="userSpaceOnUse" color-interpolation-filters="sRGB">
<feFlood flood-opacity="0" result="BackgroundImageFix"/>
<feBlend mode="normal" in="SourceGraphic" in2="BackgroundImageFix" result="shape"/>
<feGaussianBlur stdDeviation="79.2639" result="effect1_foregroundBlur_27_15106"/>
</filter>
<filter id="filter5_f_27_15106" x="-197.862" y="596.701" width="1496.47" height="949.764" filterUnits="userSpaceOnUse" color-interpolation-filters="sRGB">
<feFlood flood-opacity="0" result="BackgroundImageFix"/>
<feBlend mode="normal" in="SourceGraphic" in2="BackgroundImageFix" result="shape"/>
<feGaussianBlur stdDeviation="79.2639" result="effect1_foregroundBlur_27_15106"/>
</filter>
<filter id="filter6_f_27_15106" x="-361.572" y="495.539" width="1548.64" height="988.164" filterUnits="userSpaceOnUse" color-interpolation-filters="sRGB">
<feFlood flood-opacity="0" result="BackgroundImageFix"/>
<feBlend mode="normal" in="SourceGraphic" in2="BackgroundImageFix" result="shape"/>
<feGaussianBlur stdDeviation="79.2639" result="effect1_foregroundBlur_27_15106"/>
</filter>
<filter id="filter7_f_27_15106" x="-404.046" y="-410.553" width="1425.96" height="1425.96" filterUnits="userSpaceOnUse" color-interpolation-filters="sRGB">
<feFlood flood-opacity="0" result="BackgroundImageFix"/>
<feBlend mode="normal" in="SourceGraphic" in2="BackgroundImageFix" result="shape"/>
<feGaussianBlur stdDeviation="198.16" result="effect1_foregroundBlur_27_15106"/>
</filter>
<filter id="filter8_f_27_15106" x="488.716" y="443.441" width="716.688" height="871.149" filterUnits="userSpaceOnUse" color-interpolation-filters="sRGB">
<feFlood flood-opacity="0" result="BackgroundImageFix"/>
<feBlend mode="normal" in="SourceGraphic" in2="BackgroundImageFix" result="shape"/>
<feGaussianBlur stdDeviation="35.6687" result="effect1_foregroundBlur_27_15106"/>
</filter>
<filter id="filter9_f_27_15106" x="-112.791" y="625.682" width="1059.71" height="995.436" filterUnits="userSpaceOnUse" color-interpolation-filters="sRGB">
<feFlood flood-opacity="0" result="BackgroundImageFix"/>
<feBlend mode="normal" in="SourceGraphic" in2="BackgroundImageFix" result="shape"/>
<feGaussianBlur stdDeviation="49.1436" result="effect1_foregroundBlur_27_15106"/>
</filter>
<filter id="filter10_f_27_15106" x="489.708" y="475.131" width="716.688" height="871.149" filterUnits="userSpaceOnUse" color-interpolation-filters="sRGB">
<feFlood flood-opacity="0" result="BackgroundImageFix"/>
<feBlend mode="normal" in="SourceGraphic" in2="BackgroundImageFix" result="shape"/>
<feGaussianBlur stdDeviation="35.6687" result="effect1_foregroundBlur_27_15106"/>
</filter>
<filter id="filter11_f_27_15106" x="-238.552" y="-296.393" width="886.176" height="886.176" filterUnits="userSpaceOnUse" color-interpolation-filters="sRGB">
<feFlood flood-opacity="0" result="BackgroundImageFix"/>
<feBlend mode="normal" in="SourceGraphic" in2="BackgroundImageFix" result="shape"/>
<feGaussianBlur stdDeviation="79.2639" result="effect1_foregroundBlur_27_15106"/>
</filter>
<filter id="filter12_f_27_15106" x="321.715" y="391.393" width="835.825" height="440.559" filterUnits="userSpaceOnUse" color-interpolation-filters="sRGB">
<feFlood flood-opacity="0" result="BackgroundImageFix"/>
<feBlend mode="normal" in="SourceGraphic" in2="BackgroundImageFix" result="shape"/>
<feGaussianBlur stdDeviation="41.2172" result="effect1_foregroundBlur_27_15106"/>
</filter>
<filter id="filter13_f_27_15106" x="250.625" y="46.1625" width="982.383" height="783.053" filterUnits="userSpaceOnUse" color-interpolation-filters="sRGB">
<feFlood flood-opacity="0" result="BackgroundImageFix"/>
<feBlend mode="normal" in="SourceGraphic" in2="BackgroundImageFix" result="shape"/>
<feGaussianBlur stdDeviation="41.2172" result="effect1_foregroundBlur_27_15106"/>
</filter>
<linearGradient id="paint0_linear_27_15106" x1="299.598" y1="4.14647" x2="674.554" y2="1291.39" gradientUnits="userSpaceOnUse">
<stop stop-color="#14ECC5"/>
<stop offset="1" stop-color="#0F5548"/>
</linearGradient>
<linearGradient id="paint1_linear_27_15106" x1="945.455" y1="272.106" x2="945.455" y2="887.194" gradientUnits="userSpaceOnUse">
<stop stop-color="#E24B29"/>
<stop offset="1" stop-color="#310F08"/>
</linearGradient>
<linearGradient id="paint2_linear_27_15106" x1="430.914" y1="-196.52" x2="536.14" y2="1607.28" gradientUnits="userSpaceOnUse">
<stop stop-color="#E98EEB"/>
<stop offset="1" stop-color="#3615FF"/>
</linearGradient>
<linearGradient id="paint3_linear_27_15106" x1="601.492" y1="740.879" x2="911.436" y2="1094.88" gradientUnits="userSpaceOnUse">
<stop stop-color="#D5D1FF"/>
<stop offset="1" stop-color="#F6E4F9" stop-opacity="0"/>
</linearGradient>
<linearGradient id="paint4_linear_27_15106" x1="506.339" y1="978.943" x2="164.981" y2="1432.99" gradientUnits="userSpaceOnUse">
<stop offset="0.151993" stop-color="#0057FF"/>
<stop offset="1" stop-color="#F2CEFE"/>
</linearGradient>
<radialGradient id="paint5_radial_27_15106" cx="0" cy="0" r="1" gradientUnits="userSpaceOnUse" gradientTransform="translate(402.814 1109.96) rotate(129.947) scale(211.924 498.085)">
<stop stop-color="#24069B"/>
<stop offset="1" stop-color="#0158FF" stop-opacity="0"/>
</radialGradient>
<linearGradient id="paint6_linear_27_15106" x1="602.484" y1="772.569" x2="912.428" y2="1126.57" gradientUnits="userSpaceOnUse">
<stop stop-color="#F7CBFF"/>
<stop offset="1" stop-color="#F6E4F9" stop-opacity="0"/>
</linearGradient>
<linearGradient id="paint7_linear_27_15106" x1="448.421" y1="514.955" x2="950.904" y2="682.81" gradientUnits="userSpaceOnUse">
<stop stop-color="#F6D0FE"/>
<stop offset="1" stop-color="#F6D0FE" stop-opacity="0"/>
</linearGradient>
</defs>
</svg>
